<svg width="178" height="182" viewBox="0 0 178 182" fill="none" xmlns="http://www.w3.org/2000/svg">
<path d="M62.0461 167H68.3546H82V182H48V174H62.0461V167Z" fill="#E52521"/>
<path d="M115.954 167H109.645H96V182H130V174H115.954V167Z" fill="#E52521"/>
<path d="M12.0476 103V114H0V93H6.00049V98H13.0005V93H24.0005V97.6384V103H12.0476Z" fill="white"/>
<path d="M165.953 103V114H178V93H172V98H165V93H154V97.6384V103H165.953Z" fill="white"/>
<path d="M111 106V93H88.8872H67V106H61V114H54V129H47V136.166V144H54V158H61V167H67.0728H88.707H88.8242H110.458H117V158H124V144H131V136.166V129H124V114H117V106H111Z" fill="#049CD8"/>
<path d="M67.0495 106.038V93L59.3272 93.0001H36.1853H24V103.052H12V114L20.7656 114H54.2923H61V106.038H67.0495Z" fill="#E52521"/>
<path d="M117 114V106.038H111V93L118.525 93.0001H142.667H154V103.052L166 103.052V114L123.56 114H117Z" fill="#E52521"/>
<path d="M82 37V43H95V37H112V43H118V52H124V58H118V64H124V80H118V87H111.126H66.5814H60V80H54V64H60V59H54V52H60V43H66V37H82Z" fill="#FFCFBA"/>
<path d="M67 64V58H74V64H104V58H111V64H104V70.1236H74V64H67Z" fill="#FF9567"/>
<path d="M60 52V43H54V52H60Z" fill="#FF9567"/>
<path d="M110.009 87H68V93H110.009V87Z" fill="#FF9567"/>
<path d="M139 43H132V74H139V65H145V52H139V43Z" fill="#FF9567"/>
<path d="M39 43H46V74H39V65H33V52H39V43Z" fill="#FF9567"/>
<path d="M124 52V43H118V52H124Z" fill="#FF9567"/>
<path d="M100.009 37H78V43H100.009V37Z" fill="#FF9567"/>
<path d="M74 64H67.2499H61V79H67V87H111.003V79H117V64H111.003H104V73H74V64Z" fill="black"/>
<path d="M74 43.4155H83L83.0586 57.4155H74.0586L74 43.4155Z" fill="black"/>
<path d="M95 57.4155V43.4155H104V57.4155H95Z" fill="black"/>
<path d="M60.5168 30H54V16H61V7H66.892H75V0H103V7H111.108H117V16H124V30H117.483H60.5168Z" fill="#E52521"/>
<path d="M60 43H54V58H61V64.0497H54V74H46V43H54V30.0088H61V23H67V16H111V23H117V30.0088H124V43H132V74H124V64.0497H117V58H124V43H117H110V37H95.4117H81.6086H68V43H60Z" fill="black"/>
<path d="M79 16V8H99V16H79Z" fill="white"/>
</svg>
